<svg width="32" height="32" viewBox="0 0 32 32" fill="none" xmlns="http://www.w3.org/2000/svg">
<path fill-rule="evenodd" clip-rule="evenodd" d="M4.22966 6.89592C2.66699 8.45725 2.66699 10.9719 2.66699 15.9999C2.66699 21.0279 2.66699 23.5426 4.22966 25.1039C5.79233 26.6653 8.30566 26.6666 13.3337 26.6666H18.667C23.695 26.6666 26.2097 26.6666 27.771 25.1039C29.3323 23.5413 29.3337 21.0279 29.3337 15.9999C29.3337 10.9719 29.3337 8.45725 27.771 6.89592C26.2083 5.33459 23.695 5.33325 18.667 5.33325H13.3337C8.30566 5.33325 5.79099 5.33325 4.22966 6.89592ZM24.7683 10.0266C24.938 10.2303 25.0198 10.4931 24.9958 10.7571C24.9718 11.0211 24.8439 11.2648 24.6403 11.4346L21.7123 13.8746C20.5297 14.8613 19.5723 15.6586 18.7257 16.2026C17.8457 16.7693 16.9883 17.1266 16.0003 17.1266C15.0123 17.1266 14.155 16.7679 13.2737 16.2026C12.4283 15.6586 11.471 14.8599 10.2883 13.8759L7.36033 11.4359C7.15646 11.2662 7.02838 11.0224 7.00425 10.7582C6.98012 10.4941 7.06192 10.2311 7.23166 10.0273C7.4014 9.82339 7.64517 9.6953 7.90934 9.67117C8.17352 9.64704 8.43646 9.72885 8.64033 9.89859L11.5203 12.2973C12.7643 13.3333 13.627 14.0506 14.3577 14.5199C15.063 14.9733 15.5417 15.1266 16.0017 15.1266C16.4617 15.1266 16.9403 14.9746 17.6457 14.5199C18.375 14.0506 19.239 13.3333 20.483 12.2973L23.3617 9.89725C23.5655 9.72774 23.8284 9.64614 24.0924 9.6704C24.3565 9.69465 24.5987 9.82277 24.7683 10.0266Z" fill="#4E4D4D"/>
</svg>
