<svg width="141" height="132" viewBox="0 0 141 132" fill="none" xmlns="http://www.w3.org/2000/svg">
<mask id="mask0_82_2606" style="mask-type:alpha" maskUnits="userSpaceOnUse" x="0" y="0" width="120" height="132">
<path d="M96.0487 83.8039C96.0487 110.327 74.5474 131.828 48.0243 131.828C21.5012 131.828 0 110.327 0 83.8039C0 57.2808 84.4186 2.0915e-06 110.942 2.0915e-06C137.465 2.0915e-06 96.0487 57.2808 96.0487 83.8039Z" fill="#3C3679"/>
</mask>
<g mask="url(#mask0_82_2606)">
<path fill-rule="evenodd" clip-rule="evenodd" d="M42.3031 77.3745C39.3345 76.129 35.9805 75.881 32.2836 76.9629C19.6596 80.6572 14.4902 90.4946 13.7988 102.213C12.8304 118.685 21.0476 138.961 28.4072 149.036C29.2675 150.213 30.9193 150.469 32.0962 149.611C33.2705 148.751 33.5291 147.099 32.6688 145.922C25.8449 136.581 18.1687 117.798 19.0685 102.525C19.6226 93.078 23.5914 85.0059 33.7666 82.0267C35.9674 81.3829 37.9702 81.4726 39.7725 82.1059C39.1866 83.2802 38.6272 84.457 38.0968 85.6339C35.9778 90.3468 32.8113 103.433 33.9935 113.054C34.9303 120.667 38.5269 126.126 45.9472 125.926C50.1957 125.812 53.3306 123.245 55.2121 119.036C57.5316 113.845 57.8483 105.905 56.2175 98.2922C54.8638 91.9618 52.1774 85.8873 48.4092 81.8024C47.8815 81.2298 47.3326 80.6941 46.7653 80.1981C59.1359 58.267 81.4629 37.9166 104.386 29.2482C105.748 28.7336 106.434 27.211 105.919 25.8468C105.405 24.4851 103.879 23.7991 102.518 24.3137C78.6077 33.3542 55.3018 54.5146 42.3031 77.3745ZM44.2057 85.0455C43.7571 85.9612 43.3242 86.8794 42.9126 87.7977C41.01 92.0277 38.1708 103.773 39.2316 112.41C39.7936 116.98 41.3531 120.769 45.8074 120.651C47.9923 120.593 49.4278 119.046 50.3936 116.883C51.6761 114.014 52.1326 110.125 51.9295 105.984C51.6102 99.5615 49.6707 92.5318 46.2561 87.5603C45.6254 86.642 44.9419 85.7949 44.2057 85.0455Z" fill="#3C3679"/>
<path fill-rule="evenodd" clip-rule="evenodd" d="M86.7167 62.253C88.7749 50.2491 96.6465 37.4773 105.104 28.6268C106.109 27.5739 106.072 25.9036 105.019 24.8956C103.967 23.8902 102.294 23.9272 101.288 24.98C92.15 34.5457 83.7375 48.3914 81.5156 61.3611C81.2702 62.7966 82.2361 64.1608 83.6716 64.4062C85.1071 64.6516 86.4713 63.6885 86.7167 62.253Z" fill="#3C3679"/>
<path fill-rule="evenodd" clip-rule="evenodd" d="M101.515 24.4762C92.8204 29.4398 79.4839 30.0889 69.7626 27.5715C68.3508 27.2073 66.91 28.0571 66.5459 29.4662C66.1817 30.8753 67.0288 32.3161 68.4406 32.6829C79.3705 35.509 94.3561 34.6409 104.133 29.0598C105.397 28.3394 105.838 26.7244 105.115 25.4605C104.392 24.1965 102.779 23.7558 101.515 24.4762Z" fill="#3C3679"/>
</g>
<path fill-rule="evenodd" clip-rule="evenodd" d="M128.189 3.01224C128.164 2.47652 128.169 1.955 128.194 1.4654C128.28 -0.00693679 129.649 -0.00186404 129.755 0.000163275C129.978 0.00523156 130.972 0.0680715 131.21 1.21604C131.225 1.28446 131.26 1.78013 131.271 1.97121C131.291 2.3787 131.301 2.7791 131.245 3.18102C131.296 3.8627 131.407 4.56416 131.62 5.22405C131.929 6.19817 132.431 7.09728 133.338 7.57623C134.96 8.43784 137.094 8.40287 138.878 8.62182C139.623 8.71305 140.191 9.33441 140.216 10.0845C140.236 10.8351 139.709 11.4899 138.969 11.6263C136.739 12.0388 134.175 14.0667 132.543 15.6997C132.041 16.2015 131.478 17.3965 130.85 18.1618C130.343 18.7751 129.78 19.1862 129.248 19.3494C129.04 19.4127 127.89 19.6438 127.373 18.4528C127.231 18.1183 126.729 16.3667 126.684 16.167C126.41 15.0226 126.02 14.0003 125.254 13.09C124.591 12.3009 123.785 11.6116 122.817 11.2295C122.426 11.0754 122.021 10.9583 121.615 10.8377C121.473 10.8204 121.073 10.7698 120.931 10.7216C120.642 10.6253 120.429 10.4743 120.277 10.3238C119.988 10.0389 119.841 9.69884 119.816 9.31162C119.796 9.05618 119.831 8.75309 120.014 8.41706C120.151 8.17834 120.46 7.819 121.017 7.58586C121.6 7.34207 122.852 7.11045 123.075 7.05013C124.626 6.63251 126.146 5.99747 127.338 4.89664C127.931 4.34622 128.067 3.75272 128.189 3.01224ZM129.182 7.32233C129.78 8.56203 130.672 9.60559 131.914 10.2629C132.426 10.5361 132.984 10.7434 133.561 10.9046C132.37 11.7338 131.265 12.6764 130.389 13.5502C130.105 13.8345 129.796 14.2947 129.466 14.8001C129.081 13.4509 128.513 12.2391 127.581 11.1301C127.028 10.4763 126.405 9.87876 125.711 9.38054C126.967 8.88284 128.159 8.21688 129.182 7.32233Z" fill="#3C3679"/>
</svg>
