<svg width="32" height="32" viewBox="0 0 32 32" fill="none" xmlns="http://www.w3.org/2000/svg">
<path fill-rule="evenodd" clip-rule="evenodd" d="M7.00033 13.4067V10.6667C7.00033 8.2798 7.94854 5.99061 9.63636 4.30279C11.3242 2.61496 13.6134 1.66675 16.0003 1.66675C18.3873 1.66675 20.6765 2.61496 22.3643 4.30279C24.0521 5.99061 25.0003 8.2798 25.0003 10.6667V13.4067C26.487 13.5174 27.4537 13.7974 28.1617 14.5054C29.3337 15.6761 29.3337 17.5627 29.3337 21.3334C29.3337 25.1041 29.3337 26.9907 28.1617 28.1614C26.991 29.3334 25.1043 29.3334 21.3337 29.3334H10.667C6.89633 29.3334 5.00966 29.3334 3.83899 28.1614C2.66699 26.9907 2.66699 25.1041 2.66699 21.3334C2.66699 17.5627 2.66699 15.6761 3.83899 14.5054C4.54566 13.7974 5.51366 13.5174 7.00033 13.4067ZM9.00033 10.6667C9.00033 8.81023 9.73782 7.02975 11.0506 5.717C12.3633 4.40425 14.1438 3.66675 16.0003 3.66675C17.8568 3.66675 19.6373 4.40425 20.9501 5.717C22.2628 7.02975 23.0003 8.81023 23.0003 10.6667V13.3387C22.4901 13.3343 21.9345 13.3325 21.3337 13.3334H10.667C10.0652 13.3325 9.50966 13.3343 9.00033 13.3387V10.6667Z" fill="#4E4D4D"/>
</svg>
